<?xml version="1.0"?>
<svg width="512" height="512" xmlns="http://www.w3.org/2000/svg">

 <g>
  <title>background</title>
  <rect fill="none" id="canvas_background" height="402" width="582" y="-1" x="-1"/>
 </g>
 <g>
  <title>Layer 1</title>
  <path id="svg_1" fill="#ffffff" d="m507.59201,232.110992c0,0 -9.29599,-3.496002 -36.190002,-5.977005c-32.884003,-3.039993 -42.803986,-15.36499 -53.742004,-30.709l-0.220001,0c-1.362,-3.647003 -2.820984,-7.248001 -4.427002,-10.776001l0.127014,-0.126999c-3.122009,-18.580002 -4.812012,-34.315994 16.291992,-59.718994c17.25,-20.766006 21.36499,-29.818001 21.36499,-29.818001c-4.047974,-10.273003 -13.780975,-20.004005 -13.780975,-20.004005s-9.736023,-9.734001 -20.003998,-13.775997c0,0 -9.052002,4.104 -29.818024,21.360996c-25.402985,21.102005 -41.139984,19.407005 -59.718994,16.292l-0.127991,0.126007c-3.524017,-1.605003 -7.119995,-3.058006 -10.774994,-4.427002l0,-0.214005c-15.345001,-10.933998 -27.669006,-20.864998 -30.710022,-53.748997c-2.484985,-26.881001 -5.975983,-36.189 -5.975983,-36.189c-10.129028,-4.40499 -23.889023,-4.40499 -23.889023,-4.40499s-13.766006,0 -23.887009,4.405c0,0 -3.498001,9.309 -5.978989,36.189002c-3.041,32.883995 -15.371994,42.814995 -30.709,53.749001l0,0.213997c-3.647003,1.369003 -7.25,2.820999 -10.776001,4.420998l-0.121994,-0.119995c-18.57901,3.126999 -34.31601,4.814995 -59.719009,-16.285004c-20.763992,-17.250999 -29.827995,-21.362999 -29.827995,-21.362999c-10.272995,4.053001 -19.991997,13.771004 -19.991997,13.771004s-9.735001,9.742996 -13.777,20.008995c0,0 4.098999,9.053001 21.362,29.813004c21.099998,25.402 19.389,41.139 16.283997,59.719002l0.128006,0.126999c-1.607002,3.528 -3.059006,7.128998 -4.429001,10.776001l-0.213005,0c-10.926994,15.349991 -20.858994,27.668991 -53.740997,30.709c-26.882999,2.485992 -36.201999,5.988998 -36.201999,5.988998c-4.394,10.130997 -4.394,23.876999 -4.394,23.876999s0,13.770996 4.405,23.886993c0,0 9.297,3.503021 36.184999,5.977997c32.882999,3.041016 42.803005,15.380005 53.746998,30.710022l0.214005,0c1.370003,3.654999 2.820999,7.250977 4.429001,10.776001l-0.127998,0.126984c3.127998,18.582001 4.814995,34.31601 -16.284004,59.718994c-17.251999,20.765015 -21.368,29.82901 -21.368,29.82901c4.059002,10.268005 13.774998,19.993011 13.774998,19.993011s9.742004,9.735992 20.010002,13.770996c0,0 9.047005,-4.093994 29.813004,-21.356995c25.402,-21.100006 41.144997,-19.389008 59.717995,-16.288025l0.128006,-0.127991c3.526001,1.605011 7.128998,3.052002 10.776001,4.427002l0,0.220001c15.348999,10.928009 27.667999,20.859009 30.709,53.743011c2.485001,26.880981 5.983002,36.199982 5.983002,36.199982c10.134995,4.393005 23.881989,4.393005 23.881989,4.393005s13.770981,0 23.888992,-4.404999c0,0 3.503998,-9.298004 5.976013,-36.188995c3.040985,-32.884003 15.378998,-42.804993 30.709991,-53.743011l0,-0.220001c3.654999,-1.375 7.251007,-2.820984 10.774994,-4.427002l0.127991,0.128021c18.57901,-3.122009 34.315002,-4.812012 59.719025,16.287994c20.766998,17.252991 29.832001,21.368988 29.832001,21.368988c10.266998,-4.059998 19.98999,-13.781982 19.98999,-13.781982s9.733002,-9.736023 13.781006,-20.003998c0,0 -4.104004,-9.054016 -21.36499,-29.818024c-21.104004,-25.401978 -19.403015,-41.136993 -16.291992,-59.718994l-0.127014,-0.126984c1.605011,-3.525024 3.063995,-7.121002 4.427002,-10.776001l0.220001,0c10.928009,-15.341003 20.858002,-27.669006 53.742004,-30.710022c26.880981,-2.484985 36.200989,-5.977997 36.200989,-5.977997c4.394989,-10.126984 4.394989,-23.886993 4.394989,-23.886993s-0.000977,-13.770996 -4.405975,-23.889008zm-251.595016,143.615997c-66.125,0 -119.727997,-53.60199 -119.727997,-119.727005s53.602997,-119.72699 119.727997,-119.72699c66.124008,0 119.727005,53.602005 119.727005,119.72699s-53.602997,119.727005 -119.727005,119.727005z"/>
 </g>
</svg>