<?xml version="1.0"?>
<svg width="512" height="512" xmlns="http://www.w3.org/2000/svg" xmlns:xlink="http://www.w3.org/1999/xlink">
 <title/>
 <defs>
  <path id="path-1" d="m11,22c6.075132,0 11,-4.924868 11,-11c0,-6.075132 -4.924868,-11 -11,-11c-6.075132,0 -11,4.924868 -11,11c0,6.075132 4.924868,11 11,11l0,0zm0,-1c5.522848,0 10,-4.477152 10,-10c0,-5.522848 -4.477152,-10 -10,-10c-5.522848,0 -10,4.477152 -10,10c0,5.522848 4.477152,10 10,10l0,0zm1.897191,-14.174581l-5.848784,7.486103l-0.049307,2.499514l2.413339,-0.652529l5.848783,-7.486103l-0.788011,-0.615662l-5.662703,7.24793l-0.887917,0.324347l0.099906,-0.940009l5.662703,-7.247929l-0.788011,-0.615662l0,0zm2.324465,-1.42126c-0.40149,-0.313679 -1.403672,0.172349 -1.403672,0.172349l-0.615662,0.788011l2.364033,1.846984l0.615662,-0.788011c0,0 0.231192,-1.088391 -0.17235,-1.403672l-0.788011,-0.615661l0,0z"/>
 </defs>
 <g>
  <title>background</title>
  <rect fill="none" id="canvas_background" height="514" width="514" y="-1" x="-1"/>
 </g>
 <g>
  <title>Layer 1</title>
  <g id="miu" fill-rule="evenodd" fill="none">
   <g stroke="null" id="circle_edit_pen_pencil_outline_stroke">
    <use x="-0.086106" y="0.043053" transform="matrix(23.227272033691403,0,0,23.227272033691403,2.9999999999999996,0) " stroke="null" id="svg_1" xlink:href="#path-1" fill-rule="evenodd" fill="#ffffff"/>
    <use x="-0.086106" y="0.043053" transform="matrix(23.227272033691403,0,0,23.227272033691403,2.9999999999999996,0) " stroke="null" id="svg_2" xlink:href="#path-1" fill="#ffffff"/>
   </g>
  </g>
 </g>
</svg>