<?xml version="1.0"?>
<svg width="512" height="512" xmlns="http://www.w3.org/2000/svg" xmlns:xlink="http://www.w3.org/1999/xlink">
 <title/>
 <defs>
  <path id="path-1" d="m4.5,11.5l0,-1l6,0l0,-6l1,0l0,6l6,0l0,1l-6,0l0,6l-1,0l0,-6l-6,0zm6.5,10.5c6.07513,0 11,-4.92487 11,-11c0,-6.07513 -4.92487,-11 -11,-11c-6.07513,0 -11,4.92487 -11,11c0,6.07513 4.92487,11 11,11l0,0zm0,-1c5.52285,0 10,-4.47715 10,-10c0,-5.52285 -4.47715,-10 -10,-10c-5.52285,0 -10,4.47715 -10,10c0,5.52285 4.47715,10 10,10l0,0z"/>
 </defs>
 <g>
  <title>background</title>
  <rect fill="none" id="canvas_background" height="514" width="514" y="-1" x="-1"/>
 </g>
 <g>
  <title>Layer 1</title>
  <g id="miu" fill-rule="evenodd" fill="none">
   <g stroke="null" id="circle_add_plus_outline_stroke">
    <use stroke="null" stroke-width="0" transform="matrix(23.227273036546123,0,0,23.227273743632505,-75.25932967756,22.211212232503083) " x="3.28318" y="-0.913203" id="svg_1" xlink:href="#path-1" fill-rule="evenodd" fill="#ffffff"/>
    <use stroke="null" stroke-width="0" transform="matrix(23.227273036546123,0,0,23.227273743632505,-75.25932967756,22.211212232503083) " x="3.28318" y="-0.913203" id="svg_2" xlink:href="#path-1" fill="#ffffff"/>
   </g>
  </g>
 </g>
</svg>